<?xml version="1.0" encoding="UTF-8"?>
<svg id="Layer_2" data-name="Layer 2" xmlns="http://www.w3.org/2000/svg" viewBox="0 0 52.76 52.82">
  <defs>
    <style>
      .cls-1 {
        fill: #ad8a68;
      }
    </style>
  </defs>
  <g id="Layer_1-2" data-name="Layer 1">
    <g>
      <path class="cls-1" d="M52.75,25.03c-.1-1.97-.44-3.95-.99-5.9l-.83-2.47C46.93,6.54,37.31,0,26.39,0,14.81,0,4.69,7.41,1.2,18.44c-.63,1.98-1.02,4.07-1.16,6.21h-.02s-.02.47-.02.47v1.7s0,.97,0,.97c.1,1.97.44,3.95.99,5.9l-.02.02.79,2.5.06-.06c4,10.13,13.62,16.66,24.55,16.66,11.55,0,21.65-7.38,25.16-18.36l.02-.07s0,0,0-.01l.02-.06h0c.61-1.96,1-4.02,1.14-6.14l.02-.02.02-.45v-2.67ZM22.05,43.14c-3.23-.79-6.18-2.45-8.54-4.8l-6.93-6.93,3.35-3.35,7.85,7.85c2.3,2.3,5.35,3.56,8.6,3.56s6.3-1.27,8.6-3.56l14.87-14.87c.31,1.37.51,2.78.58,4.19.02.42.03.8.03,1.18,0,.25,0,.49-.01.74l-11.19,11.19c-4.53,4.53-10.96,6.33-17.21,4.8ZM26.39,15.68c2.63,0,5.1,1.02,6.95,2.88l7.85,7.85-7.85,7.85c-1.86,1.86-4.33,2.88-6.95,2.88s-5.1-1.02-6.95-2.88l-7.85-7.85,7.85-7.85c1.86-1.86,4.33-2.88,6.95-2.88ZM26.39,2.33c5.07,0,9.9,1.54,13.99,4.45,4.07,2.9,7.09,6.94,8.75,11.69l-1.29,1.29-6.93-6.93c-8.01-8.01-21.04-8.01-29.05,0L2.72,21.98c.18-.96.42-1.91.71-2.84C6.61,9.09,15.83,2.33,26.39,2.33ZM26.38,9.16c4.87,0,9.44,1.89,12.88,5.33l6.93,6.93-3.35,3.35-7.85-7.85c-2.3-2.3-5.35-3.56-8.6-3.56s-6.3,1.27-8.6,3.56L2.91,31.79c-.31-1.37-.51-2.78-.58-4.19-.02-.43-.03-.81-.03-1.18,0-.25,0-.49.01-.74l11.19-11.19c3.43-3.43,8.01-5.32,12.87-5.33ZM49.34,33.68c-3.18,10.05-12.41,16.81-22.96,16.81-5.06,0-9.9-1.54-13.99-4.45-4.07-2.9-7.09-6.94-8.75-11.69l1.29-1.29,6.93,6.93c.37.37.79.75,1.26,1.15,7.78,6.59,19.36,6.43,26.95-.37.3-.27.58-.53.83-.78l9.15-9.15c-.17.94-.4,1.86-.69,2.77l-.02.07Z"/>
      <path class="cls-1" d="M21.18,31.22c1.39,1.39,3.24,2.16,5.2,2.16s3.81-.77,5.2-2.16l4.81-4.81-4.81-4.81c-1.39-1.39-3.24-2.16-5.2-2.16s-3.81.77-5.2,2.16l-4.81,4.81,4.81,4.81ZM22.72,23.13c.98-.98,2.28-1.52,3.67-1.52s2.69.54,3.67,1.52l3.28,3.27-3.28,3.28c-.98.98-2.28,1.52-3.67,1.52s-2.69-.54-3.67-1.52l-3.27-3.28,3.27-3.27Z"/>
    </g>
  </g>
</svg>